<svg xmlns="http://www.w3.org/2000/svg" width="328" height="328" viewBox="0 0 82 82"><g><g><g><path fill="#f0533f" d="M76.315 40.848c0 19.556-15.91 35.467-35.467 35.467S5.38 60.405 5.38 40.848 21.29 5.38 40.848 5.38c19.557 0 35.467 15.91 35.467 35.468zm4.819 0C81.134 18.634 63.06.562 40.848.562 18.634.562.562 18.634.562 40.848c0 22.213 18.072 40.285 40.286 40.285 22.213 0 40.286-18.072 40.286-40.285z"/></g><g><path fill="#f0533f" d="M11.481 29.162c1.814-.01 3.628-.02 5.442-.026.913-.004 1.826 0 2.8 0l.432 5.462c.402.152.46-.036.482-.354.116-1.684.251-3.366.381-5.078h8.594v10.945h-5.324V34.29h-.451l-.864 5.823h-4.881c-.221-1.501-.44-3.001-.663-4.501-.05-.347-.133-.69-.157-1.038-.021-.311-.177-.344-.464-.273v5.841H11.48z"/></g><g><path fill="#f0533f" d="M22.92 52.196h-4.88l-.86-5.817-.437-.039v5.85H11.48V41.245h8.193l.43 5.463h.438l.425-5.45h8.597v10.936h-5.308V46.38l-.47-.033-.866 5.848z"/></g><g><path fill="#f0533f" d="M48.543 52.186l-.69-4.393c-.043-.27-.086-.541-.12-.813-.036-.29-.154-.455-.514-.323v5.53h-5.26V41.243c.15-.01.296-.029.442-.029 2.348-.001 4.695.006 7.043-.008.363-.003.482.097.533.47.216 1.567.472 3.128.73 4.688.032.199-.033.554.427.428v-5.54h5.256v10.934z"/></g><g><path fill="#f0533f" d="M36.713 32.03c.423-.07.809-.065 1.094.284.272.332.294 1.263.048 1.668-.256.42-.669.413-1.142.38zm5.909 4.213c.767-.624 1.113-1.067 1.22-1.817a9.68 9.68 0 0 0 .092-2.047c-.106-1.461-.838-2.5-2.293-2.898-.612-.168-1.255-.295-1.885-.304-2.852-.04-5.704-.033-8.555-.04-.116 0-.233.024-.357.038v10.932h5.871v-2.822c.37-.116.528-.018.607.316.121.517.296 1.021.45 1.53.303 1.01.303 1.01 1.344 1.01h5.187l-1.681-3.898z"/></g><g><path fill="#f0533f" d="M57.47 41.235h5.843v.496c0 1.829-.003 3.658.004 5.487 0 .271-.002.564.098.806.07.169.316.377.474.369.184-.01.431-.2.517-.376.105-.218.096-.503.096-.76.008-1.828.004-3.657.005-5.486v-.526h5.66c.017.084.048.169.047.253-.01 2.332.012 4.665-.054 6.995-.035 1.222-.414 2.39-1.535 3.051a6.5 6.5 0 0 1-2.203.793c-1.856.305-3.739.317-5.586-.077-2.206-.47-3.251-1.632-3.344-3.886-.097-2.357-.022-4.72-.022-7.139z"/></g><g><path fill="#f0533f" d="M36.504 44.712v.822h4.091v2.323h-4.073v.858h4.4v3.48H30.607V41.239h10.301v3.473z"/></g><g><path fill="#f0533f" d="M47.147 40.444c-1.344.003-2.2-.503-2.557-1.509-.651-1.837.46-3.437 2.401-3.457.168-.002.336-.006.503.003 1.068.06 1.92.613 2.186 1.51.305 1.03.268 2.03-.581 2.83-.543.513-1.235.624-1.952.623z"/></g><g><path fill="#f0533f" d="M67.243 36.651c-.477 1.212-.955 2.422-1.426 3.635-.058.149-.156.156-.283.156-1.086-.002-2.171-.005-3.256.002-.2 0-.236-.047-.188-.248.286-1.18.555-2.363.83-3.545h4.323z"/></g></g></g></svg>