<?xml version="1.0" encoding="utf-8"?>
<!-- Generator: Adobe Illustrator 16.0.3, SVG Export Plug-In . SVG Version: 6.00 Build 0)  -->
<!DOCTYPE svg PUBLIC "-//W3C//DTD SVG 1.1//EN" "http://www.w3.org/Graphics/SVG/1.1/DTD/svg11.dtd">
<svg version="1.1" id="Capa_1" xmlns="http://www.w3.org/2000/svg" xmlns:xlink="http://www.w3.org/1999/xlink" x="0px" y="0px"
	 width="125.5px" height="129.5px" viewBox="0 0 125.5 129.5" enable-background="new 0 0 125.5 129.5" xml:space="preserve">
<g>
	<path fill="#FFFFFF" d="M14.186,84.506c0.105,0.253,0.224,0.487,0.353,0.721c0.06,0.136,0.142,0.277,0.215,0.404
		c0.119,0.253,0.248,0.497,0.371,0.741l0.719,1.286c0.133,0.239,0.261,0.473,0.412,0.707c0.252,0.458,0.55,0.906,0.811,1.364
		c0.119,0.19,0.229,0.38,0.362,0.57c0.504,0.833,0.962,1.525,1.452,2.197c0.348,0.501,0.696,0.994,1.071,1.485
		c0.124,0.185,0.261,0.371,0.39,0.555l1.012,1.305c0.124,0.151,0.247,0.327,0.38,0.482c0.448,0.575,0.925,1.13,1.401,1.695
		c0,0.01,0.014,0.02,0.023,0.034c0.591,0.789,1.227,1.49,1.923,2.114l0.018,0.019c0.367,0.399,0.733,0.794,1.122,1.184l0.462,0.472
		c0.508,0.507,1.017,1.008,1.552,1.496c0.009,0,0.014,0.01,0.023,0.015l0.261,0.244c0.467,0.433,0.939,0.862,1.42,1.261l0.572,0.512
		c0.389,0.331,0.792,0.643,1.19,0.969l0.623,0.507c0.425,0.341,0.879,0.672,1.314,1.003c0.16,0.122,0.321,0.244,0.485,0.355
		l0.133,0.112l1.287,0.896l0.549,0.39c0.673,0.458,1.342,0.887,2.01,1.315c0.192,0.103,0.385,0.215,0.563,0.332
		c0.495,0.302,1.007,0.609,1.506,0.887c0.275,0.166,0.559,0.306,0.843,0.458c0.343,0.205,0.701,0.404,1.067,0.609
		c0.101,0.035,0.183,0.068,0.266,0.117l0.018-0.02c0.151,0.074,0.293,0.151,0.44,0.229c0.549,0.292,1.122,0.57,1.717,0.843
		c0.109,0.048,0.229,0.097,0.348,0.166c0.659,0.307,1.319,0.599,2.001,0.881c0.156,0.049,0.321,0.131,0.481,0.195
		c0.618,0.249,1.254,0.502,1.887,0.741l0.229,0.087c0.7,0.253,1.392,0.497,2.106,0.726c0.165,0.049,0.334,0.112,0.508,0.161
		c0.728,0.233,1.434,0.512,2.17,0.658c47.041,9.074,60.709-29.938,60.709-29.938c-11.484,15.831-31.866,20.005-51.166,15.358
		c-0.714-0.175-1.429-0.419-2.152-0.643c-1.021-0.308-2.033-0.647-3.036-1.018l0.435,0.141l-0.284-0.117
		c-0.623-0.224-1.223-0.473-1.832-0.721c-0.149-0.067-0.3-0.129-0.453-0.185l-0.051-0.015c-0.673-0.288-1.328-0.579-1.978-0.887
		c-0.142-0.048-0.261-0.117-0.403-0.175c-0.77-0.357-1.534-0.731-2.29-1.121l0.632,0.297c-0.165-0.078-0.327-0.162-0.485-0.253
		c-0.431-0.215-0.861-0.458-1.282-0.687c-0.321-0.162-0.637-0.334-0.948-0.516l0.091,0.049c-0.517-0.292-1.035-0.609-1.557-0.906
		c-0.156-0.117-0.334-0.214-0.513-0.322c-0.776-0.479-1.542-0.977-2.299-1.49l0.289,0.185c-0.194-0.127-0.383-0.262-0.568-0.404
		l0.027,0.02c-0.492-0.322-0.975-0.659-1.447-1.013c-0.156-0.107-0.298-0.224-0.458-0.341c-0.494-0.358-0.979-0.729-1.456-1.111
		l0.11,0.083c-0.192-0.165-0.398-0.321-0.604-0.482c-0.403-0.336-0.811-0.658-1.213-1.008l-0.54-0.458
		c-0.576-0.487-1.141-0.989-1.694-1.505l-0.005-0.005l-1.589-1.535l-0.458-0.458c-0.375-0.404-0.76-0.79-1.145-1.189l-0.444-0.487
		c-0.474-0.5-0.937-1.011-1.387-1.535l-0.028-0.034l-0.078-0.068c-0.485-0.566-0.963-1.14-1.434-1.72
		c-0.123-0.151-0.238-0.312-0.366-0.472l-1.039-1.34c-0.469-0.626-0.927-1.261-1.374-1.904l-0.183-0.273
		c-10.706-15.471-14.58-36.82-6.012-54.336l-7.564,10.175c-9.73,14.803-8.526,34.054-1.085,49.772
		C13.815,83.78,14.003,84.141,14.186,84.506L14.186,84.506z"/>
	<path fill="#FFFFFF" d="M52.077,69.571l0.413,0.438c0.522,0.536,1.058,1.057,1.603,1.579l0.069,0.063
		c0.549,0.517,1.167,1.057,1.804,1.583l0.096,0.078c0.156,0.112,0.289,0.244,0.44,0.355c0.641,0.526,1.287,1.028,1.96,1.53
		l0.068,0.044c0.284,0.219,0.586,0.419,0.907,0.633c0.128,0.087,0.275,0.204,0.412,0.292c0.485,0.331,0.961,0.638,1.452,0.955
		c0.078,0.034,0.146,0.078,0.22,0.112c0.412,0.268,0.861,0.526,1.291,0.76c0.151,0.098,0.298,0.17,0.454,0.263
		c0.307,0.161,0.609,0.331,0.902,0.497l0.146,0.068c0.618,0.321,1.25,0.624,1.869,0.921c0.156,0.063,0.288,0.116,0.421,0.185
		c0.508,0.234,1.025,0.458,1.534,0.663c0.229,0.083,0.444,0.18,0.659,0.253c0.467,0.185,0.957,0.355,1.42,0.526l0.641,0.219
		c0.668,0.219,1.347,0.506,2.056,0.624c36.326,6.362,44.733-23.24,44.733-23.24c-7.569,11.53-22.218,17.024-37.828,12.733
		c-0.779-0.209-1.552-0.444-2.317-0.706l0.261,0.078c-0.22-0.063-0.412-0.136-0.623-0.205c-0.476-0.175-0.966-0.346-1.429-0.526
		l-0.659-0.263c-0.513-0.219-1.035-0.424-1.534-0.658c-0.156-0.073-0.298-0.122-0.417-0.195c-0.641-0.307-1.287-0.609-1.914-0.93
		l-0.943-0.521l-0.545-0.292c-0.421-0.234-0.811-0.478-1.213-0.726c-0.103-0.051-0.202-0.109-0.297-0.175L68.2,66.59
		c-0.485-0.321-0.989-0.633-1.456-0.959c-0.156-0.092-0.297-0.205-0.444-0.302l-0.953-0.658c-0.66-0.487-1.305-1.008-1.96-1.515
		c-0.146-0.141-0.289-0.258-0.43-0.385c-6.864-5.713-12.276-13.522-14.846-22.363c-2.706-9.192-2.111-19.499,2.564-27.863
		l-5.747,8.612c-7.056,10.721-6.658,25.052-1.163,36.392c1.002,2.095,2.019,3.863,3.141,5.548c1.044,1.588,2.198,3.449,3.59,4.726
		C50.992,68.422,51.524,68.992,52.077,69.571L52.077,69.571z"/>
	<path fill="#FFFFFF" d="M70.325,11.835c-4.163,6.464-4.561,14.491-1.694,21.618c3.045,7.57,9.268,13.512,16.521,16.328
		c0.298,0.122,0.586,0.224,0.893,0.341l0.403,0.131c0.421,0.141,0.847,0.307,1.282,0.409c20.061,4.096,25.491-10.901,26.952-13.108
		c-4.776,7.258-12.784,9.001-22.611,6.474c-0.854-0.222-1.695-0.498-2.519-0.828l0.151,0.053c-1.024-0.377-2.027-0.816-3.004-1.315
		l0.174,0.083c-1.877-0.975-3.489-2.026-4.986-3.235c-8.783-7.063-14.213-20.512-8.48-31.467L70.325,11.835z"/>
</g>
</svg>
