<?xml version="1.0" encoding="utf-8"?>
<!-- Generator: Adobe Illustrator 16.0.3, SVG Export Plug-In . SVG Version: 6.00 Build 0)  -->
<!DOCTYPE svg PUBLIC "-//W3C//DTD SVG 1.1//EN" "http://www.w3.org/Graphics/SVG/1.1/DTD/svg11.dtd">
<svg version="1.1" id="Capa_1" xmlns="http://www.w3.org/2000/svg" xmlns:xlink="http://www.w3.org/1999/xlink" x="0px" y="0px"
	 width="124.588px" height="88.941px" viewBox="0 0 124.588 88.941" enable-background="new 0 0 124.588 88.941"
	 xml:space="preserve">
<g id="g3438_1_" transform="matrix(1.25,0,0,-1.25,-4.4,394.29875)">
	<g id="g3440_1_">
		<g>
			<defs>
				<path id="SVGID_1_" d="M8.584,281.232c0-14.581,20.038-26.401,44.754-26.401l0,0c24.716,0,44.754,11.82,44.754,26.401l0,0
					c0,14.58-20.037,26.401-44.754,26.401l0,0C28.622,307.633,8.584,295.812,8.584,281.232"/>
			</defs>
			<clipPath id="SVGID_2_">
				<use xlink:href="#SVGID_1_"  overflow="visible"/>
			</clipPath>
			<g id="g3442_1_" clip-path="url(#SVGID_2_)">
				<g id="g3448_1_">
					<g id="g3450_1_">
						
							<radialGradient id="path3462_2_" cx="175.3661" cy="-67.1219" r="1.0005" gradientTransform="matrix(73.4598 0 0 -82.3808 -12846.8838 -5231.2051)" gradientUnits="userSpaceOnUse">
							<stop  offset="0" style="stop-color:#AEB2D5"/>
							<stop  offset="0.3" style="stop-color:#AEB2D5"/>
							<stop  offset="0.75" style="stop-color:#494D8A"/>
							<stop  offset="1" style="stop-color:#494D8A"/>
						</radialGradient>
						<path id="path3462_1_" fill="url(#path3462_2_)" d="M8.584,281.232c0-14.581,20.038-26.401,44.754-26.401l0,0
							c24.716,0,44.754,11.82,44.754,26.401l0,0c0,14.58-20.037,26.401-44.754,26.401l0,0
							C28.622,307.633,8.584,295.812,8.584,281.232"/>
					</g>
				</g>
			</g>
		</g>
	</g>
	<g id="g3464_1_">
		<g>
			<defs>
				<rect id="SVGID_3_" x="-4.935" y="244.472" width="116.545" height="73.519"/>
			</defs>
			<clipPath id="SVGID_4_">
				<use xlink:href="#SVGID_3_"  overflow="visible"/>
			</clipPath>
			<g id="g3466_1_" clip-path="url(#SVGID_4_)">
				<g id="g3472_1_" transform="translate(288,27.3594)">
					<path id="path3474_1_" fill="#777CB4" d="M-234.662,229.431c23.75,0,43.006,10.943,43.006,24.441
						c0,13.498-19.255,24.441-43.006,24.441c-23.751,0-43.005-10.943-43.005-24.441
						C-277.667,240.375-258.412,229.431-234.662,229.431"/>
				</g>
			</g>
		</g>
	</g>
	<g id="g3476_1_">
		<g>
			<defs>
				<rect id="SVGID_5_" x="-4.935" y="244.472" width="116.545" height="73.519"/>
			</defs>
			<clipPath id="SVGID_6_">
				<use xlink:href="#SVGID_5_"  overflow="visible"/>
			</clipPath>
			<g id="g3478_1_" clip-path="url(#SVGID_6_)">
				<g id="g3484_1_" transform="translate(161.7344,145.3066)">
					<path id="path3486_1_" fill="#010202" d="M-128.835,132.894c1.953,0,3.411,0.404,4.334,1.2
						c0.912,0.788,1.543,2.154,1.873,4.058c0.308,1.78,0.191,3.023-0.349,3.693c-0.551,0.685-1.744,1.033-3.544,1.033h-3.121
						l-1.73-9.985H-128.835z M-139.043,120.596c-0.145,0-0.282,0.073-0.375,0.199c-0.092,0.125-0.129,0.29-0.102,0.45l4.585,26.458
						c0.045,0.255,0.245,0.44,0.477,0.44h9.882c3.106,0,5.418-0.946,6.871-2.811c1.461-1.875,1.912-4.496,1.341-7.791
						c-0.232-1.343-0.632-2.589-1.189-3.705c-0.557-1.117-1.292-2.151-2.187-3.073c-1.071-1.123-2.283-1.939-3.6-2.419
						c-1.295-0.474-2.959-0.714-4.945-0.714h-4.002l-1.143-6.593c-0.045-0.255-0.244-0.441-0.477-0.441H-139.043z"/>
				</g>
				<g id="g3488_1_" transform="translate(159.2236,197.3071)">
					<path id="path3490_1_" fill="#FFFFFF" d="M-126.731,90.333h2.721c2.173,0,2.927-0.534,3.184-0.853
						c0.425-0.529,0.506-1.644,0.232-3.225c-0.307-1.77-0.877-3.025-1.693-3.729c-0.836-0.722-2.194-1.087-4.037-1.087h-1.948
						L-126.731,90.333z M-122.063,96.687h-9.883c-0.465,0-0.865-0.37-0.954-0.881l-4.585-26.457
						c-0.055-0.319,0.019-0.649,0.204-0.901c0.184-0.25,0.459-0.396,0.749-0.396h5.139c0.465,0,0.864,0.37,0.953,0.881l1.066,6.153
						h3.602c2.037,0,3.751,0.249,5.096,0.74c1.382,0.504,2.654,1.358,3.78,2.538c0.931,0.961,1.698,2.039,2.279,3.206
						c0.581,1.166,0.998,2.467,1.241,3.867c0.601,3.468,0.113,6.245-1.452,8.253C-116.376,95.678-118.811,96.687-122.063,96.687
						 M-129.45,80.349h3.126c2.072,0,3.616,0.438,4.63,1.314c1.014,0.875,1.698,2.337,2.054,4.385
						c0.34,1.966,0.185,3.354-0.465,4.162c-0.651,0.809-1.952,1.213-3.905,1.213h-3.521L-129.45,80.349 M-122.063,95.598
						c2.973,0,5.142-0.875,6.505-2.625c1.363-1.75,1.773-4.193,1.23-7.329c-0.224-1.292-0.602-2.473-1.136-3.543
						c-0.534-1.071-1.23-2.05-2.091-2.938c-1.027-1.077-2.166-1.845-3.421-2.302c-1.254-0.457-2.852-0.686-4.795-0.686h-4.402
						l-1.219-7.034h-5.139l4.586,26.458H-122.063"/>
				</g>
				<g id="g3492_1_" transform="translate(311.583,116.3066)">
					<path id="path3494_1_" fill="#010202" d="M-254.427,156.63c-0.145,0-0.283,0.073-0.374,0.199
						c-0.093,0.125-0.13,0.29-0.103,0.449l2.029,11.707c0.193,1.113,0.146,1.913-0.134,2.25c-0.171,0.206-0.684,0.553-2.202,0.553
						h-3.675l-2.55-14.717c-0.045-0.255-0.245-0.441-0.477-0.441h-5.099c-0.145,0-0.282,0.073-0.375,0.199
						c-0.092,0.125-0.129,0.291-0.102,0.449l4.585,26.458c0.044,0.256,0.244,0.441,0.477,0.441h5.099
						c0.145,0,0.282-0.073,0.375-0.198c0.092-0.125,0.129-0.29,0.102-0.45l-1.106-6.386h3.954c3.011,0,5.053-0.595,6.243-1.82
						c1.212-1.25,1.591-3.248,1.125-5.939l-2.134-12.312c-0.045-0.255-0.244-0.441-0.477-0.441H-254.427z"/>
				</g>
				<g id="g3496_1_" transform="translate(293.6611,271.0571)">
					<path id="path3498_1_" fill="#FFFFFF" d="M-239.406,29.971h-5.099c-0.465,0-0.864-0.37-0.953-0.881l-4.585-26.457
						c-0.056-0.32,0.019-0.65,0.204-0.902c0.185-0.25,0.459-0.396,0.75-0.396h5.099c0.465,0,0.865,0.37,0.954,0.882l2.473,14.275
						h3.275c1.516,0,1.833-0.363,1.846-0.379c0.092-0.111,0.212-0.625,0.013-1.776l-2.029-11.705c-0.055-0.32,0.02-0.65,0.204-0.902
						c0.184-0.25,0.459-0.396,0.749-0.396h5.18c0.465,0,0.865,0.37,0.953,0.882l2.134,12.312c0.5,2.89,0.072,5.058-1.273,6.444
						c-1.283,1.321-3.432,1.964-6.571,1.964h-3.365l0.994,5.737c0.055,0.319-0.019,0.65-0.204,0.9
						C-238.842,29.826-239.117,29.971-239.406,29.971 M-239.406,28.882l-1.219-7.034h4.543c2.858,0,4.83-0.56,5.914-1.677
						c1.085-1.118,1.411-2.93,0.977-5.434l-2.134-12.312h-5.18l2.028,11.707c0.231,1.332,0.146,2.24-0.255,2.724
						c-0.401,0.484-1.253,0.727-2.558,0.727h-4.076l-2.626-15.157h-5.099l4.585,26.458H-239.406"/>
				</g>
				<g id="g3500_1_" transform="translate(409.5498,145.3066)">
					<path id="path3502_1_" fill="#010202" d="M-336.536,132.894c1.953,0,3.411,0.404,4.334,1.2
						c0.912,0.788,1.543,2.154,1.873,4.058c0.309,1.78,0.191,3.023-0.349,3.693c-0.552,0.685-1.744,1.033-3.543,1.033h-3.121
						l-1.73-9.985H-336.536z M-346.744,120.596c-0.145,0-0.283,0.073-0.374,0.199c-0.093,0.125-0.13,0.29-0.103,0.45l4.586,26.458
						c0.045,0.255,0.245,0.44,0.477,0.44h9.883c3.106,0,5.418-0.946,6.871-2.811c1.461-1.875,1.913-4.496,1.341-7.791
						c-0.233-1.343-0.632-2.589-1.189-3.705c-0.556-1.117-1.292-2.151-2.186-3.073c-1.071-1.123-2.283-1.939-3.6-2.419
						c-1.296-0.474-2.959-0.714-4.945-0.714h-4.002l-1.142-6.593c-0.045-0.255-0.245-0.441-0.477-0.441H-346.744z"/>
				</g>
				<g id="g3504_1_" transform="translate(407.0391,197.3071)">
					<path id="path3506_1_" fill="#FFFFFF" d="M-334.432,90.333h2.721c2.172,0,2.927-0.534,3.184-0.853
						c0.425-0.529,0.505-1.644,0.232-3.225c-0.307-1.77-0.877-3.025-1.692-3.729c-0.836-0.722-2.195-1.087-4.038-1.087h-1.948
						L-334.432,90.333z M-329.765,96.687h-9.883c-0.465,0-0.864-0.37-0.953-0.881l-4.586-26.457
						c-0.055-0.319,0.02-0.649,0.204-0.901c0.184-0.25,0.459-0.396,0.749-0.396h5.139c0.465,0,0.864,0.37,0.954,0.881l1.066,6.153
						h3.601c2.037,0,3.752,0.249,5.096,0.74c1.382,0.504,2.655,1.359,3.78,2.539c0.93,0.96,1.697,2.038,2.279,3.205
						c0.581,1.166,0.999,2.467,1.241,3.867c0.602,3.468,0.112,6.245-1.452,8.253C-324.078,95.678-326.513,96.687-329.765,96.687
						 M-337.151,80.349h3.125c2.072,0,3.616,0.438,4.63,1.314c1.014,0.875,1.698,2.337,2.054,4.385
						c0.341,1.966,0.186,3.354-0.465,4.162c-0.651,0.809-1.952,1.213-3.904,1.213h-3.521L-337.151,80.349 M-329.765,95.598
						c2.973,0,5.142-0.875,6.505-2.625c1.363-1.75,1.773-4.193,1.23-7.329c-0.223-1.292-0.602-2.473-1.136-3.543
						c-0.534-1.071-1.23-2.05-2.092-2.938c-1.026-1.077-2.166-1.845-3.421-2.302c-1.254-0.457-2.852-0.686-4.795-0.686h-4.402
						l-1.219-7.034h-5.139l4.586,26.458H-329.765"/>
				</g>
			</g>
		</g>
	</g>
</g>
</svg>
