<?xml version="1.0" encoding="utf-8"?>
<!-- Generator: Adobe Illustrator 16.0.3, SVG Export Plug-In . SVG Version: 6.00 Build 0)  -->
<!DOCTYPE svg PUBLIC "-//W3C//DTD SVG 1.1//EN" "http://www.w3.org/Graphics/SVG/1.1/DTD/svg11.dtd">
<svg version="1.1" id="Capa_1" xmlns="http://www.w3.org/2000/svg" xmlns:xlink="http://www.w3.org/1999/xlink" x="0px" y="0px"
	 width="115.5px" height="116.5px" viewBox="0 0 115.5 116.5" enable-background="new 0 0 115.5 116.5" xml:space="preserve">
<g>
	<path fill="#4A74B7" d="M57.943,6.14c8.583,0,16.665,1.959,24.247,5.755l0,0l1.001,0.49l-0.877,0.673
		c-2.13,1.653-3.821,3.795-4.887,6.244l0,0l-0.313,0.673l-0.626-0.306c-5.827-2.693-12.03-4.102-18.483-4.102
		c-23.871,0-43.231,18.978-43.231,42.24s19.298,42.24,43.169,42.24s43.231-18.978,43.231-42.24c0-5.571-1.066-11.019-3.321-16.161
		l0,0l-0.313-0.674l0.689-0.306c2.569-0.918,4.824-2.448,6.642-4.407l0,0l0.688-0.857l0.439,0.979
		c3.195,6.795,4.762,14.019,4.762,21.304c0,28.466-23.746,51.667-52.88,51.667S5,86.152,5,57.686S28.746,6.018,57.943,6.14z
		 M57.943,34.3c13.22,0,24.059,10.529,24.122,23.568c0,13.04-10.777,23.569-24.122,23.569c-13.346,0-24.122-10.53-24.122-23.569
		C33.821,44.83,44.66,34.3,57.943,34.3z M92.465,14.833c6.09,0,11.027,4.824,11.027,10.774c0,5.95-4.937,10.774-11.027,10.774
		c-6.09,0-11.027-4.824-11.027-10.774C81.438,19.657,86.375,14.833,92.465,14.833z"/>
</g>
</svg>
