<?xml version="1.0" encoding="utf-8"?>
<!-- Generator: Adobe Illustrator 16.0.3, SVG Export Plug-In . SVG Version: 6.00 Build 0)  -->
<!DOCTYPE svg PUBLIC "-//W3C//DTD SVG 1.1//EN" "http://www.w3.org/Graphics/SVG/1.1/DTD/svg11.dtd">
<svg version="1.1" id="Capa_1" xmlns="http://www.w3.org/2000/svg" xmlns:xlink="http://www.w3.org/1999/xlink" x="0px" y="0px"
	 width="105.765px" height="118.353px" viewBox="0 0 105.765 118.353" enable-background="new 0 0 105.765 118.353"
	 xml:space="preserve">
<g>
	<polygon fill="#DD0932" points="53.265,5 53.265,5 53.265,5 5.075,22.607 12.425,87.893 53.265,111.069 53.265,111.069 
		53.265,111.069 94.104,87.893 101.454,22.607 	"/>
	<polygon fill="#C31631" points="53.265,5 53.265,16.774 53.265,16.721 53.265,70.445 53.265,70.445 53.265,111.069 53.265,111.069 
		94.104,87.893 101.454,22.607 	"/>
	<path fill="#FFFFFF" d="M53.265,16.721L23.14,85.93l0,0h11.232l0,0l6.056-15.485h25.569l6.056,15.485l0,0h11.233l0,0L53.265,16.721
		L53.265,16.721L53.265,16.721L53.265,16.721L53.265,16.721z M62.064,60.898H44.465l8.799-21.69L62.064,60.898z"/>
</g>
</svg>
