<?xml version="1.0" encoding="utf-8"?>
<!-- Generator: Adobe Illustrator 16.0.3, SVG Export Plug-In . SVG Version: 6.00 Build 0)  -->
<!DOCTYPE svg PUBLIC "-//W3C//DTD SVG 1.1//EN" "http://www.w3.org/Graphics/SVG/1.1/DTD/svg11.dtd">
<svg version="1.1" id="Capa_1" xmlns="http://www.w3.org/2000/svg" xmlns:xlink="http://www.w3.org/1999/xlink" x="0px" y="0px"
	 width="127.14px" height="122.445px" viewBox="0 0 127.14 122.445" enable-background="new 0 0 127.14 122.445"
	 xml:space="preserve">
<ellipse fill="#61DAFB" cx="63.683" cy="60.457" rx="10.707" ry="11.301"/>
<g>
	<ellipse fill="none" stroke="#61DAFB" cx="63.683" cy="60.457" rx="57.449" ry="23.153"/>
	<path fill="none" stroke="#61DAFB" d="M82.679,48.88c15.864,29.003,20.22,57.699,9.729,64.093
		c-10.491,6.393-31.857-11.936-47.721-40.939C28.823,43.03,24.468,14.334,34.959,7.941C45.45,1.547,66.816,19.876,82.679,48.88z"/>
	<path fill="none" stroke="#61DAFB" d="M82.679,72.034c-15.864,29.003-37.229,47.332-47.721,40.939
		c-10.491-6.394-6.136-35.089,9.729-64.093C60.551,19.876,81.917,1.547,92.408,7.941C102.899,14.334,98.544,43.03,82.679,72.034z"/>
</g>
</svg>
