<?xml version="1.0" encoding="utf-8"?>
<!-- Generator: Adobe Illustrator 16.0.3, SVG Export Plug-In . SVG Version: 6.00 Build 0)  -->
<!DOCTYPE svg PUBLIC "-//W3C//DTD SVG 1.1//EN" "http://www.w3.org/Graphics/SVG/1.1/DTD/svg11.dtd">
<svg version="1.1" id="Capa_1" xmlns="http://www.w3.org/2000/svg" xmlns:xlink="http://www.w3.org/1999/xlink" x="0px" y="0px"
	 width="122.165px" height="117.5px" viewBox="0 0 122.165 117.5" enable-background="new 0 0 122.165 117.5" xml:space="preserve">
<g>
	<g transform="translate(26.734177, 116.658228)">
		<path d="M76.688-55.213c0-0.186-0.055-0.319-0.165-0.406c-0.122-0.093-0.335-0.143-0.63-0.143h-0.424v1.104h0.512
			C76.453-54.658,76.688-54.844,76.688-55.213L76.688-55.213z M77.349-52.911h-0.583l-0.373-0.777
			c-0.188-0.39-0.39-0.584-0.61-0.584h-0.314v1.361h-0.48v-3.239h0.963c0.427,0,0.748,0.087,0.969,0.271
			c0.188,0.158,0.281,0.359,0.281,0.611c0,0.223-0.077,0.411-0.23,0.566c-0.149,0.157-0.363,0.264-0.639,0.319v0.014
			c0.19,0.042,0.381,0.24,0.566,0.597L77.349-52.911L77.349-52.911z M78.414-54.499c0-0.638-0.23-1.175-0.688-1.602
			c-0.461-0.427-1.021-0.641-1.683-0.641c-0.682,0-1.25,0.214-1.701,0.645c-0.451,0.432-0.675,0.966-0.675,1.598
			c0,0.646,0.234,1.186,0.697,1.616c0.458,0.43,1.019,0.643,1.678,0.643c0.655,0,1.217-0.214,1.679-0.649
			C78.184-53.318,78.414-53.856,78.414-54.499L78.414-54.499z M78.738-54.513c0,0.715-0.261,1.315-0.782,1.798
			c-0.521,0.487-1.16,0.729-1.924,0.729c-0.771,0-1.41-0.239-1.918-0.708c-0.508-0.477-0.761-1.074-0.761-1.801
			c0-0.709,0.258-1.306,0.774-1.796c0.516-0.489,1.159-0.733,1.926-0.733c0.754,0,1.385,0.233,1.896,0.699
			C78.476-55.846,78.738-55.244,78.738-54.513L78.738-54.513z"/>
		<path d="M5.643-45.48H3.985v-8.984c0-0.709,0.049-1.574,0.138-2.593H4.085c-0.155,0.597-0.297,1.028-0.422,1.296L-1.155-45.48
			h-0.807l-4.828-10.208c-0.136-0.285-0.278-0.743-0.422-1.37h-0.036c0.051,0.537,0.08,1.406,0.08,2.611v8.967h-1.598V-58.86h2.187
			l4.334,9.33c0.327,0.703,0.538,1.237,0.641,1.602h0.069c0.282-0.731,0.506-1.28,0.676-1.641l4.427-9.291h2.074L5.643-45.48
			L5.643-45.48z"/>
		<path d="M10.741-45.48h-1.61v-9.554h1.61V-45.48L10.741-45.48z M11.02-58.46c0,0.281-0.104,0.517-0.312,0.71
			c-0.204,0.193-0.456,0.29-0.751,0.29c-0.288,0-0.538-0.093-0.744-0.279c-0.206-0.188-0.307-0.427-0.307-0.721
			c0-0.276,0.102-0.511,0.307-0.703c0.206-0.191,0.456-0.283,0.744-0.283c0.295,0,0.547,0.091,0.751,0.283
			C10.916-58.972,11.02-58.737,11.02-58.46L11.02-58.46z"/>
		<path d="M20.809-45.922c-0.773,0.449-1.697,0.672-2.764,0.672c-1.446,0-2.61-0.456-3.5-1.364
			c-0.863-0.881-1.298-2.019-1.298-3.414c0-1.564,0.473-2.832,1.426-3.794c0.947-0.965,2.222-1.446,3.826-1.446
			c0.876,0,1.654,0.163,2.334,0.485v1.57c-0.753-0.501-1.549-0.749-2.403-0.749c-1.028,0-1.863,0.34-2.512,1.018
			c-0.675,0.694-1.017,1.622-1.017,2.779c0,1.112,0.313,1.991,0.933,2.641c0.622,0.646,1.45,0.97,2.495,0.97
			c0.882,0,1.708-0.274,2.482-0.82V-45.922L20.809-45.922z"/>
		<path d="M28.514-53.485c-0.284-0.207-0.693-0.308-1.233-0.308c-0.656,0-1.207,0.278-1.654,0.839
			c-0.506,0.626-0.759,1.494-0.759,2.602v4.871h-1.614v-9.555h1.614v1.97h0.039c0.238-0.697,0.604-1.233,1.093-1.614
			c0.458-0.347,0.976-0.522,1.545-0.522c0.43,0,0.75,0.044,0.968,0.13L28.514-53.485L28.514-53.485z"/>
		<path d="M37.513-50.24c0-1.224-0.292-2.158-0.875-2.799c-0.566-0.616-1.357-0.924-2.375-0.924c-1.003,0-1.809,0.312-2.411,0.934
			c-0.637,0.666-0.955,1.605-0.955,2.826c0,1.143,0.303,2.041,0.914,2.681c0.607,0.644,1.426,0.966,2.452,0.966
			c1.062,0,1.875-0.327,2.431-0.979C37.24-48.172,37.513-49.072,37.513-50.24 M39.169-50.294c0,1.522-0.454,2.746-1.358,3.662
			c-0.908,0.92-2.13,1.381-3.667,1.381c-1.514,0-2.719-0.461-3.603-1.381c-0.865-0.887-1.301-2.059-1.301-3.515
			c0-1.662,0.491-2.944,1.478-3.853c0.912-0.845,2.132-1.27,3.661-1.27c1.504,0,2.68,0.444,3.527,1.324
			C38.745-53.061,39.169-51.843,39.169-50.294"/>
		<path d="M47.176-48.037c0,0.782-0.308,1.43-0.926,1.947c-0.675,0.56-1.602,0.839-2.768,0.839c-0.955,0-1.792-0.189-2.502-0.576
			v-1.644c0.791,0.609,1.663,0.915,2.623,0.915c1.278,0,1.918-0.446,1.918-1.334c0-0.374-0.141-0.684-0.424-0.922
			c-0.284-0.244-0.835-0.537-1.656-0.878c-0.845-0.35-1.447-0.709-1.802-1.083c-0.426-0.443-0.641-1.018-0.641-1.726
			c0-0.792,0.335-1.453,0.996-1.979c0.664-0.527,1.516-0.792,2.562-0.792c0.802,0,1.52,0.149,2.157,0.448v1.54
			c-0.665-0.455-1.426-0.682-2.289-0.682c-0.535,0-0.964,0.126-1.284,0.372c-0.323,0.251-0.486,0.572-0.486,0.962
			c0,0.424,0.136,0.753,0.406,0.988c0.239,0.218,0.748,0.483,1.514,0.793c0.862,0.342,1.484,0.696,1.863,1.059
			C46.928-49.331,47.176-48.747,47.176-48.037"/>
		<path d="M57.045-50.24c0-1.224-0.292-2.158-0.876-2.799c-0.565-0.616-1.357-0.924-2.374-0.924c-1.004,0-1.81,0.312-2.415,0.934
			c-0.635,0.666-0.951,1.605-0.951,2.826c0,1.143,0.303,2.041,0.908,2.681c0.615,0.644,1.434,0.966,2.458,0.966
			c1.063,0,1.874-0.327,2.431-0.979C56.772-48.172,57.045-49.072,57.045-50.24 M58.704-50.294c0,1.522-0.458,2.746-1.364,3.662
			c-0.905,0.92-2.126,1.381-3.663,1.381c-1.515,0-2.721-0.461-3.605-1.381c-0.865-0.887-1.301-2.059-1.301-3.515
			c0-1.662,0.496-2.944,1.476-3.853c0.913-0.845,2.135-1.27,3.665-1.27c1.505,0,2.678,0.444,3.522,1.324
			C58.277-53.061,58.704-51.843,58.704-50.294"/>
		<path d="M65.819-58.282c-0.317-0.167-0.671-0.251-1.073-0.251c-1.131,0-1.691,0.674-1.691,2.025v1.472h2.364v1.295h-2.364v8.26
			h-1.616v-8.26h-1.715v-1.295h1.715v-1.548c0-1.052,0.34-1.877,1.032-2.471c0.593-0.518,1.317-0.774,2.179-0.774
			c0.499,0,0.888,0.057,1.17,0.167V-58.282L65.819-58.282z"/>
		<path d="M72.192-45.577c-0.381,0.208-0.889,0.31-1.518,0.31c-1.76,0-2.64-0.94-2.64-2.819v-5.652h-1.73v-1.297h1.73v-2.331
			c0.516-0.154,1.052-0.322,1.618-0.496v2.827h2.54v1.297h-2.54v5.392c0,0.641,0.111,1.099,0.342,1.364
			c0.234,0.274,0.615,0.409,1.153,0.409c0.401,0,0.75-0.102,1.044-0.308V-45.577L72.192-45.577z"/>
	</g>
	<g transform="translate(0.000000, 160.405063)">
		<path d="M11.638-51.937c0,0.748-0.282,1.396-0.853,1.943c-0.568,0.545-1.257,0.82-2.066,0.82c-0.791,0-1.463-0.275-2.015-0.82
			c-0.551-0.547-0.826-1.195-0.826-1.943c0-0.77,0.275-1.42,0.826-1.958c0.551-0.54,1.224-0.807,2.015-0.807
			c0.809,0,1.499,0.271,2.066,0.817C11.355-53.338,11.638-52.687,11.638-51.937"/>
		<path d="M47.791-49.737h-5.266L23.409-77.699c-0.447-0.672-0.832-1.402-1.159-2.201h-0.157c0.136,0.749,0.206,2.355,0.206,4.818
			v25.345h-4.341v-35.08h5.634l18.544,27.521c0.738,1.092,1.243,1.875,1.499,2.345h0.103c-0.172-1.009-0.262-2.729-0.262-5.157
			v-24.708h4.315L47.791-49.737L47.791-49.737z"/>
		<path d="M75.623-49.737h-19.63v-35.08h18.778v3.718H60.33v11.669h13.381v3.72H60.33v12.255h15.292V-49.737L75.623-49.737z"/>
		<path d="M105.398-81.099H94.729v31.363H90.39v-31.363H79.7v-3.719h25.698V-81.099L105.398-81.099z"/>
	</g>
	<g transform="translate(0.810127, 0.000000)">
		
			<linearGradient id="SVGID_1_" gradientUnits="userSpaceOnUse" x1="-167.3067" y1="538.9512" x2="-167.3067" y2="538.306" gradientTransform="matrix(45.6076 0 0 -81.335 7686.4033 43842.2266)">
			<stop  offset="0" style="stop-color:#0994DC"/>
			<stop  offset="0.35" style="stop-color:#66CEF5"/>
			<stop  offset="0.35" style="stop-color:#66CEF5"/>
			<stop  offset="0.8462" style="stop-color:#127BCA"/>
			<stop  offset="0.8462" style="stop-color:#127BCA"/>
			<stop  offset="1" style="stop-color:#127BCA"/>
		</linearGradient>
		<path fill="url(#SVGID_1_)" d="M45.509,14.997c4.188,12.13,5.774,33.768,18.021,33.768l0,0c0.933,0,1.874-0.086,2.82-0.256l0,0
			C55.218,46.05,53.898,24.647,47.105,13.563l0,0C46.573,14.021,46.043,14.5,45.509,14.997"/>
		
			<linearGradient id="SVGID_2_" gradientUnits="userSpaceOnUse" x1="-167.4776" y1="539.0234" x2="-167.4776" y2="538.3782" gradientTransform="matrix(47.8692 0 0 -83.4083 8075.063 44964.2656)">
			<stop  offset="0" style="stop-color:#0E76BC"/>
			<stop  offset="0.36" style="stop-color:#36AEE8"/>
			<stop  offset="0.36" style="stop-color:#36AEE8"/>
			<stop  offset="0.8462" style="stop-color:#00ADEF"/>
			<stop  offset="0.8462" style="stop-color:#00ADEF"/>
			<stop  offset="1" style="stop-color:#00ADEF"/>
		</linearGradient>
		<path fill="url(#SVGID_2_)" d="M47.105,13.563c6.793,11.084,8.113,32.487,19.245,34.946l0,0c0.875-0.152,1.751-0.382,2.63-0.673
			l0,0c-9.993-4.637-12.755-25.421-20.47-35.427l0,0C48.043,12.777,47.574,13.163,47.105,13.563"/>
		<path fill="#14559A" d="M56.893,6.971c-0.931,0-1.875,0.086-2.822,0.257c-2.478,0.442-4.995,1.453-7.533,2.982
			c0.693,0.647,1.353,1.389,1.974,2.198c2.581-2.028,5.145-3.528,7.7-4.428c0.958-0.336,1.914-0.589,2.872-0.756
			C58.392,7.058,57.663,6.971,56.893,6.971"/>
		
			<linearGradient id="SVGID_3_" gradientUnits="userSpaceOnUse" x1="-167.6529" y1="538.4199" x2="-167.6529" y2="538.9267" gradientTransform="matrix(45.4522 0 0 -84.5 7689.6499 45544.0625)">
			<stop  offset="0" style="stop-color:#1C63B7"/>
			<stop  offset="0.5" style="stop-color:#33BDF2"/>
			<stop  offset="1" style="stop-color:#33BDF2;stop-opacity:0.4196"/>
		</linearGradient>
		<path fill="url(#SVGID_3_)" d="M76.78,43.561c1.022-0.77,2.046-1.621,3.072-2.55C75.597,28.938,74.074,6.989,61.742,6.989
			c-0.882,0-1.771,0.078-2.66,0.233C70.316,9.869,71.755,33.017,76.78,43.561"/>
		<path fill="#3092C4" d="M59.082,7.224c-0.691-0.167-1.42-0.252-2.19-0.252l4.85,0.016C60.86,6.987,59.97,7.065,59.082,7.224"/>
		<path fill="#1969BC" d="M76.564,46.126c-0.482-0.435-0.94-0.913-1.39-1.422c-2.075,1.391-4.141,2.445-6.195,3.132
			c0.731,0.338,1.497,0.589,2.31,0.745c0.63,0.122,1.283,0.184,1.968,0.184c2.304,0,4.126-0.258,5.677-0.963
			C78.08,47.365,77.297,46.799,76.564,46.126"/>
		
			<linearGradient id="SVGID_4_" gradientUnits="userSpaceOnUse" x1="-167.5528" y1="539.0752" x2="-167.5528" y2="538.43" gradientTransform="matrix(45.0105 0 0 -86.5982 7608.1426 46682.8477)">
			<stop  offset="0" style="stop-color:#166AB8"/>
			<stop  offset="0.4" style="stop-color:#36AEE8"/>
			<stop  offset="0.4" style="stop-color:#36AEE8"/>
			<stop  offset="0.8462" style="stop-color:#0798DD"/>
			<stop  offset="0.8462" style="stop-color:#0798DD"/>
			<stop  offset="1" style="stop-color:#0798DD"/>
		</linearGradient>
		<path fill="url(#SVGID_4_)" d="M56.21,7.982c10.062,4.984,10.936,27.556,18.965,36.722l0,0c0.538-0.36,1.071-0.741,1.604-1.143
			l0,0C71.753,33.017,70.316,9.867,59.084,7.223l0,0C58.125,7.393,57.168,7.645,56.21,7.982"/>
		
			<linearGradient id="SVGID_5_" gradientUnits="userSpaceOnUse" x1="-167.9737" y1="539.2949" x2="-167.9737" y2="538.6497" gradientTransform="matrix(58.3509 0 0 -92.0822 9863.3066 49659.6992)">
			<stop  offset="0" style="stop-color:#124379"/>
			<stop  offset="0.39" style="stop-color:#1487CB"/>
			<stop  offset="0.39" style="stop-color:#1487CB"/>
			<stop  offset="0.7802" style="stop-color:#165197"/>
			<stop  offset="0.7802" style="stop-color:#165197"/>
			<stop  offset="1" style="stop-color:#165197"/>
		</linearGradient>
		<path fill="url(#SVGID_5_)" d="M48.51,12.409c7.715,10.006,10.477,30.79,20.47,35.427l0,0c2.054-0.687,4.121-1.742,6.195-3.132
			l0,0c-8.029-9.166-8.903-31.737-18.965-36.722l0,0C53.655,8.881,51.091,10.38,48.51,12.409"/>
		
			<linearGradient id="SVGID_6_" gradientUnits="userSpaceOnUse" x1="-163.251" y1="532.6465" x2="-162.794" y2="532.6465" gradientTransform="matrix(19.4176 0 0 -30.9219 3206.571 16488.9141)">
			<stop  offset="0" style="stop-color:#33BDF2;stop-opacity:0.698"/>
			<stop  offset="1" style="stop-color:#1DACD8"/>
		</linearGradient>
		<path fill="url(#SVGID_6_)" d="M40.573,14.705c-1.209,2.589-2.444,5.994-3.938,10.437c2.97-3.964,5.93-7.378,8.873-10.144
			c-0.405-1.181-0.841-2.27-1.31-3.24C42.996,12.63,41.783,13.613,40.573,14.705"/>
		<path fill="#2B74B1" d="M45.271,11.011c-0.355,0.241-0.712,0.487-1.071,0.748c0.469,0.97,0.902,2.058,1.308,3.239
			c0.534-0.496,1.065-0.975,1.596-1.434C46.534,12.636,45.929,11.779,45.271,11.011"/>
		<path fill="#125A9E" d="M46.538,10.21c-0.422,0.253-0.843,0.52-1.267,0.8c0.658,0.768,1.263,1.625,1.835,2.555
			c0.469-0.402,0.938-0.79,1.405-1.156C47.891,11.6,47.231,10.858,46.538,10.21"/>
		
			<linearGradient id="SVGID_7_" gradientUnits="userSpaceOnUse" x1="-169.0787" y1="538.9941" x2="-169.0787" y2="539.4169" gradientTransform="matrix(79.1425 0 0 -98.6787 13484.5576 53233.7617)">
			<stop  offset="0" style="stop-color:#136AB4"/>
			<stop  offset="0.6" style="stop-color:#59CAF5;stop-opacity:0.549"/>
			<stop  offset="1" style="stop-color:#59CAF5;stop-opacity:0.2353"/>
		</linearGradient>
		<path fill="url(#SVGID_7_)" d="M115.167,6.047c-5.69,20.785-17.577,37.48-27.541,41.689h-0.019
			c-0.182,0.078-0.361,0.148-0.538,0.217c-0.024,0.014-0.047,0.017-0.066,0.024c-0.052,0.02-0.101,0.036-0.153,0.056
			c-0.024,0.014-0.046,0.019-0.069,0.026c-0.084,0.028-0.167,0.053-0.249,0.084c-0.035,0.014-0.069,0.023-0.103,0.034
			c-0.037,0.014-0.08,0.027-0.123,0.038c-0.038,0.014-0.077,0.024-0.12,0.04c-0.036,0.014-0.073,0.02-0.106,0.034
			c-0.074,0.02-0.14,0.037-0.214,0.061c-0.03,0-0.058,0.015-0.089,0.023c-0.045,0.014-0.095,0.023-0.144,0.036
			c-0.034,0.014-0.062,0.019-0.097,0.026c-0.05,0.014-0.106,0.027-0.157,0.038c-0.067,0.014-0.127,0.027-0.19,0.04
			c0.451,0.157,0.919,0.237,1.426,0.237c9.449,0,18.976-16.038,34.74-42.709h-6.189L115.167,6.047z"/>
		
			<linearGradient id="SVGID_8_" gradientUnits="userSpaceOnUse" x1="-167.8878" y1="539.2148" x2="-167.4307" y2="539.2148" gradientTransform="matrix(72.0226 0 0 -99.1613 12096.8223 53497.6953)">
			<stop  offset="0" style="stop-color:#05A1E6;stop-opacity:0.2471"/>
			<stop  offset="1" style="stop-color:#05A1E6"/>
		</linearGradient>
		<path fill="url(#SVGID_8_)" d="M34.584,7.815c0.006,0,0.013-0.014,0.017-0.014c0.007,0,0.019,0,0.022-0.015h0.012
			c0.052-0.016,0.101-0.036,0.153-0.055c0.013,0,0.021,0,0.03-0.014c0.013,0,0.026-0.015,0.04-0.016
			c0.056-0.017,0.112-0.037,0.165-0.055h0.009c0.125-0.035,0.241-0.079,0.362-0.121c0.017,0,0.034-0.014,0.054-0.014
			c0.05-0.016,0.103-0.033,0.155-0.044c0.024-0.014,0.048-0.014,0.071-0.021c0.054-0.016,0.106-0.033,0.157-0.044
			c0.022,0,0.043-0.014,0.06-0.015c0.174-0.045,0.346-0.088,0.52-0.127c0.024,0,0.045-0.015,0.071-0.016
			c0.05-0.014,0.098-0.021,0.151-0.029c0.023-0.014,0.049-0.014,0.075-0.021c0.05-0.014,0.099-0.016,0.153-0.027h0.035
			c0.105-0.02,0.211-0.037,0.316-0.055h0.063c0.05-0.014,0.095-0.015,0.146-0.024c0.027,0,0.056-0.014,0.082-0.014
			c0.047,0,0.094-0.014,0.14-0.021c0.025,0,0.048,0,0.077-0.014c0.11-0.014,0.224-0.02,0.34-0.029
			c-0.327-0.029-0.664-0.049-1.006-0.049c-10.641,0-25.302,18.7-31.906,42.918h1.272c2.113-3.571,4.012-6.948,5.749-10.118
			c4.625-17.153,14.046-28.851,22.415-31.951"/>
		<path fill="#0D82CA" d="M40.573,14.705c1.209-1.092,2.422-2.074,3.626-2.947c-0.275-0.57-0.559-1.098-0.864-1.58
			C42.362,11.295,41.473,12.772,40.573,14.705"/>
		<path fill="#0D82CA" d="M41.448,7.957c0.695,0.552,1.317,1.312,1.887,2.221c0.18-0.209,0.361-0.402,0.55-0.582
			c-0.791-0.699-1.645-1.272-2.572-1.705c0.038,0.02,0.075,0.035,0.114,0.051C41.427,7.942,41.441,7.957,41.448,7.957"/>
		
			<linearGradient id="SVGID_9_" gradientUnits="userSpaceOnUse" x1="-166.6944" y1="537.8555" x2="-166.6944" y2="538.434" gradientTransform="matrix(49.0511 0 0 -73.8222 8199.9209 39753.2227)">
			<stop  offset="0" style="stop-color:#318ED5"/>
			<stop  offset="1" style="stop-color:#38A7E4"/>
		</linearGradient>
		<path fill="url(#SVGID_9_)" d="M12.169,39.765c9.703-17.709,14.3-28.917,22.415-31.951l0,0
			C26.217,10.915,16.794,22.613,12.169,39.765"/>
		<path fill="#127BCA" d="M43.884,9.595c-0.188,0.183-0.368,0.374-0.549,0.583c0.305,0.483,0.588,1.01,0.865,1.581
			c0.359-0.26,0.716-0.507,1.071-0.747C44.831,10.498,44.368,10.022,43.884,9.595"/>
		
			<linearGradient id="SVGID_10_" gradientUnits="userSpaceOnUse" x1="-166.5328" y1="537.1953" x2="-166.5328" y2="537.9221" gradientTransform="matrix(45.6036 0 0 -57.1283 7620.6987 30736.8164)">
			<stop  offset="0" style="stop-color:#05A1E6"/>
			<stop  offset="1" style="stop-color:#05A1E6;stop-opacity:0.549"/>
		</linearGradient>
		<path fill="url(#SVGID_10_)" d="M16.574,49.803L16.574,49.803c-0.06,0.014-0.12,0.014-0.176,0.02h-0.034
			c-0.05,0-0.103,0.014-0.149,0.014h-0.024c-0.121,0.014-0.241,0.014-0.357,0.022h-0.038c9.821-0.26,14.31-4.917,16.537-11.671
			c1.693-5.121,3.084-9.435,4.303-13.054c-4.114,5.484-8.246,12.02-12.4,19.343c-2.003,3.529-5.049,5.003-7.662,5.318"/>
		
			<linearGradient id="SVGID_11_" gradientUnits="userSpaceOnUse" x1="-167.0172" y1="538.4404" x2="-167.0172" y2="538.874" gradientTransform="matrix(52.5191 0 0 -81.0936 8800.1855 43713.9023)">
			<stop  offset="0" style="stop-color:#1959A6"/>
			<stop  offset="0.5" style="stop-color:#05A1E6"/>
			<stop  offset="0.5" style="stop-color:#05A1E6"/>
			<stop  offset="0.9176" style="stop-color:#7EC5EA"/>
			<stop  offset="1" style="stop-color:#7EC5EA"/>
		</linearGradient>
		<path fill="url(#SVGID_11_)" d="M16.574,49.799L16.574,49.799c2.612-0.316,5.659-1.788,7.662-5.319l0,0
			c4.154-7.321,8.288-13.86,12.397-19.344l0,0c1.495-4.444,2.729-7.846,3.939-10.435l0,0c-8.191,7.384-16.414,19.663-23.999,35.094"
			/>
		<path fill="#05A1E6" d="M12.169,39.765c-1.736,3.17-3.635,6.547-5.749,10.118h3.702c0.49-3.546,1.185-6.926,2.046-10.116"/>
		
			<linearGradient id="SVGID_12_" gradientUnits="userSpaceOnUse" x1="-167.7203" y1="539.0205" x2="-167.8117" y2="539.4011" gradientTransform="matrix(72.6768 0 0 -99.0047 12219.1582 53412.9492)">
			<stop  offset="0" style="stop-color:#165096"/>
			<stop  offset="1" style="stop-color:#0D82CA"/>
		</linearGradient>
		<path fill="url(#SVGID_12_)" d="M37.72,7.049c-0.03,0-0.052,0.014-0.079,0.014l0,0c-0.044,0.014-0.091,0.014-0.138,0.019l0,0
			c-0.028,0-0.054,0-0.082,0.014l0,0c-0.051,0.014-0.097,0.016-0.146,0.025l0,0c-0.022,0-0.045,0-0.063,0.014l0,0
			C37.105,7.151,37,7.169,36.896,7.187l0,0H36.86l0,0c-0.055,0.014-0.103,0.021-0.153,0.028l0,0
			c-0.026,0.014-0.053,0.014-0.077,0.02l0,0c-0.05,0.014-0.101,0.02-0.149,0.028l0,0c-0.026,0.014-0.046,0.014-0.071,0.015l0,0
			c-0.174,0.04-0.346,0.082-0.52,0.127l0,0c-0.019,0-0.038,0.014-0.06,0.017l0,0c-0.052,0.014-0.103,0.028-0.157,0.044l0,0
			c-0.022,0.014-0.048,0.014-0.071,0.02l0,0C35.55,7.5,35.497,7.515,35.447,7.531l0,0c-0.021,0-0.037,0.013-0.056,0.013l0,0
			c-0.12,0.043-0.238,0.085-0.361,0.121l0,0l0,0l0,0C34.978,7.68,34.922,7.7,34.866,7.718l0,0c-0.023,0.014-0.043,0.017-0.069,0.027
			l0,0c-0.052,0.015-0.104,0.035-0.153,0.053l0,0c-0.019,0.015-0.037,0.016-0.05,0.023l0,0
			c-8.114,3.034-12.711,14.242-22.415,31.951l0,0c-0.861,3.189-1.559,6.57-2.046,10.115l0,0h0.52c1.463,0,1.876-0.014,3.56-0.014
			l0,0h0.086h0.25h0.086h0.024h0.086h0.048h0.034h0.067h0.209h0.209h0.176h0.047h0.308l0,0c0.116-0.014,0.236-0.014,0.357-0.023l0,0
			h0.022l0,0c0.051,0,0.101-0.014,0.149-0.014l0,0h0.036l0,0c0.054,0,0.116-0.014,0.176-0.02l0,0
			c7.585-15.432,15.808-27.71,24-35.095l0,0c0.9-1.933,1.788-3.409,2.76-4.526l0,0c-0.568-0.909-1.19-1.67-1.886-2.223l0,0
			c0,0-0.019,0-0.021-0.014l0,0c-0.04-0.015-0.077-0.034-0.116-0.052l0,0c-0.04-0.02-0.073-0.035-0.114-0.055l0,0
			c-0.036-0.014-0.077-0.033-0.112-0.051l0,0c-0.049-0.014-0.088-0.034-0.131-0.053l0,0c-0.036-0.014-0.067-0.028-0.103-0.042l0,0
			c-0.073-0.027-0.146-0.056-0.215-0.085l0,0c-0.032-0.015-0.062-0.021-0.091-0.033l0,0c-0.051-0.017-0.108-0.039-0.161-0.061l0,0
			c-0.026-0.014-0.057-0.017-0.086-0.027l0,0c-0.077-0.024-0.151-0.049-0.222-0.072l0,0h-0.019l0,0
			c-0.086-0.027-0.17-0.047-0.258-0.069l0,0c-0.02-0.014-0.037-0.014-0.058-0.017l0,0c-0.077-0.021-0.144-0.04-0.217-0.058l0,0
			c-0.019,0-0.036-0.014-0.05-0.014l0,0c-0.176-0.044-0.357-0.079-0.54-0.112l0,0c-0.019,0-0.038-0.014-0.056-0.014l0,0
			c-0.079-0.014-0.155-0.026-0.233-0.035l0,0c-0.019-0.014-0.03-0.014-0.047-0.014l0,0c-0.093-0.015-0.185-0.024-0.276-0.034l0,0
			h-0.049l0,0c-0.075-0.013-0.144-0.015-0.213-0.022l0,0c-0.118,0.014-0.23,0.02-0.34,0.03"/>
		
			<linearGradient id="SVGID_13_" gradientUnits="userSpaceOnUse" x1="-167.7701" y1="536.8506" x2="-167.7701" y2="537.1979" gradientTransform="matrix(32.7663 0 0 -57.2261 5592.9375 30747.9199)">
			<stop  offset="0" style="stop-color:#05A1E6"/>
			<stop  offset="0.8736" style="stop-color:#0495D6"/>
			<stop  offset="1" style="stop-color:#0495D6"/>
		</linearGradient>
		<path fill="url(#SVGID_13_)" d="M92.939,17.554c-1.866,5.664-3.378,10.337-4.694,14.182l0,0
			c5.122-6.676,10.168-15.075,14.973-24.768l0,0C97.613,8.635,94.623,12.452,92.939,17.554"/>
		
			<linearGradient id="SVGID_14_" gradientUnits="userSpaceOnUse" x1="-168.7466" y1="539.3506" x2="-168.8825" y2="538.8685" gradientTransform="matrix(60.2691 0 0 -96.3231 10275.5869 51955.8906)">
			<stop  offset="0" style="stop-color:#38A7E4;stop-opacity:0.3294"/>
			<stop  offset="0.9615" style="stop-color:#0E88D3"/>
			<stop  offset="0.9615" style="stop-color:#0E88D3"/>
			<stop  offset="1" style="stop-color:#0E88D3"/>
		</linearGradient>
		<path fill="url(#SVGID_14_)" d="M88.408,47.383c-0.261,0.126-0.523,0.247-0.781,0.354c9.964-4.209,21.851-20.904,27.541-41.689
			h-1.153C100.94,28.167,96.735,42.976,88.408,47.383"/>
		<path fill="#079AE1" d="M81.901,45.524c2.168-2.506,3.934-6.767,6.345-13.789c-2.781,3.618-5.58,6.729-8.381,9.265
			c0,0.014,0,0.014-0.015,0.022c0.611,1.735,1.282,3.266,2.047,4.501"/>
		<path fill="#1969BC" d="M81.901,45.524c-0.738,0.854-1.519,1.503-2.388,1.984c-0.19,0.105-0.383,0.204-0.58,0.294
			c0.918,0.469,1.919,0.782,3.041,0.908l0,0c0.165,0.016,0.327,0.03,0.497,0.041h0.031c0.076,0,0.157,0,0.239,0.014h0.032h0.245
			h0.263h0.083h0.187c0.03,0,0.061,0,0.091-0.014c0.058,0,0.12,0,0.179-0.014h0.021h0.067c0.062,0,0.128-0.014,0.195-0.021h0.014
			c0.02,0,0.041-0.014,0.06-0.014c0.069-0.014,0.141-0.02,0.208-0.03h0.061c0.077-0.014,0.155-0.023,0.234-0.037h0.015h0.022
			c0.157-0.029,0.311-0.057,0.465-0.094c-1.286-0.445-2.362-1.498-3.29-2.995"/>
		<path fill="#1E5CB3" d="M63.53,48.765c0.933,0,1.875-0.086,2.82-0.258c0.875-0.15,1.751-0.38,2.63-0.671
			c0.731,0.338,1.497,0.59,2.308,0.745c0.629,0.122,1.284,0.184,1.97,0.184H63.53L63.53,48.765z"/>
		<path fill="#1E5CB3" d="M73.258,48.765c2.303,0,4.126-0.258,5.675-0.962c0.918,0.469,1.919,0.782,3.041,0.908l0,0
			c0.165,0.016,0.327,0.03,0.497,0.042h0.031c0.076,0,0.157,0,0.239,0.013h0.034h0.246h-9.769L73.258,48.765z"/>
		<path fill="#1D60B5" d="M83.025,48.765h0.266h0.083h0.185c0.031,0,0.062,0,0.091-0.014c0.059,0,0.12,0,0.182-0.014h0.02h0.069
			c0.062,0,0.128-0.014,0.192-0.02h0.017c0.02,0,0.039-0.014,0.059-0.014c0.068-0.014,0.14-0.02,0.207-0.03
			c0.022,0,0.04,0,0.064-0.014c0.077-0.014,0.155-0.022,0.234-0.035h0.015h0.022c0.157-0.028,0.31-0.057,0.465-0.094l0,0
			c0.451,0.158,0.919,0.237,1.426,0.237l-3.592,0.014L83.025,48.765z"/>
		<path fill="#175FAB" d="M79.855,41.023v-0.014c-1.025,0.929-2.05,1.781-3.072,2.551c-0.535,0.401-1.067,0.782-1.606,1.142
			c0.451,0.51,0.909,0.988,1.391,1.423c0.733,0.673,1.516,1.239,2.37,1.676c0.195-0.09,0.389-0.189,0.577-0.293
			c0.871-0.481,1.652-1.131,2.391-1.984c-0.764-1.235-1.435-2.767-2.046-4.501"/>
		
			<linearGradient id="SVGID_15_" gradientUnits="userSpaceOnUse" x1="-168.8961" y1="539.3887" x2="-168.8961" y2="538.9467" gradientTransform="matrix(70.2816 0 0 -98.1105 11968.2588 52925.5313)">
			<stop  offset="0" style="stop-color:#168CD4"/>
			<stop  offset="0.5" style="stop-color:#1C87CC"/>
			<stop  offset="1" style="stop-color:#154B8D"/>
		</linearGradient>
		<path fill="url(#SVGID_15_)" d="M110.363,6.047h-4.849h-0.481l0,0h-0.456l0,0h-0.018c-0.314,0.014-0.619,0.024-0.92,0.043l0,0
			c-0.142,0.289-0.287,0.577-0.428,0.867l0,0c-4.805,9.693-9.85,18.091-14.973,24.768l0,0c-2.409,7.022-4.177,11.283-6.344,13.789
			l0,0c0.927,1.498,2.005,2.55,3.288,2.997l0,0c0.037-0.014,0.067-0.014,0.101-0.022l0,0h0.021l0,0c0.022,0,0.046-0.014,0.071-0.014
			l0,0c0.052-0.014,0.108-0.022,0.161-0.038l0,0c0.033-0.015,0.062-0.015,0.095-0.026l0,0c0.049-0.014,0.099-0.024,0.145-0.035l0,0
			c0.029-0.014,0.06-0.019,0.089-0.024l0,0c0.075-0.023,0.142-0.04,0.213-0.061l0,0c0.034-0.015,0.069-0.026,0.106-0.034l0,0
			c0.042-0.014,0.083-0.024,0.12-0.041l0,0c0.043-0.015,0.086-0.021,0.124-0.037l0,0c0.033-0.014,0.069-0.023,0.101-0.036l0,0
			c0.084-0.028,0.166-0.052,0.25-0.083l0,0c0.023,0,0.045-0.02,0.07-0.024l0,0C86.897,48.016,86.95,48,87,47.979l0,0
			c0.019-0.014,0.041-0.015,0.065-0.023l0,0c0.176-0.069,0.357-0.14,0.539-0.217l0,0h0.019l0,0c0.258-0.107,0.52-0.229,0.779-0.354
			l0,0c8.329-4.408,12.534-19.216,25.608-41.335l0,0h-3.652L110.363,6.047z"/>
		<path fill="#7DCBEC" d="M38.06,7.02c0.021,0,0.039,0,0.06,0.014c0.05,0,0.101,0,0.151,0.016h0.051
			c0.091,0.014,0.183,0.021,0.276,0.034c0.017,0,0.032,0,0.046,0.014c0.077,0.014,0.155,0.025,0.234,0.037
			c0.017,0,0.04,0.014,0.058,0.014c0.179,0.034,0.362,0.069,0.538,0.113c0.017,0,0.034,0.014,0.048,0.014
			c0.075,0.017,0.142,0.038,0.217,0.058c0.022,0,0.04,0.014,0.06,0.017c0.088,0.021,0.17,0.042,0.256,0.069
			c0.003,0,0.008,0,0.019,0.014c0.073,0.021,0.147,0.048,0.224,0.072c0.03,0.014,0.058,0.02,0.086,0.027
			c0.053,0.022,0.11,0.043,0.161,0.063c0.03,0,0.06,0.02,0.092,0.03c0.069,0.03,0.142,0.057,0.213,0.084
			c0.038,0.014,0.069,0.03,0.104,0.043c0.042,0.019,0.084,0.038,0.129,0.052c0.038,0.017,0.079,0.036,0.114,0.051
			c0.039,0.02,0.077,0.036,0.114,0.056c0.927,0.432,1.781,1.007,2.572,1.704c0.292-0.29,0.596-0.55,0.912-0.784
			c-1.729-1.161-3.687-1.823-5.946-1.823c-0.262,0-0.523,0.015-0.789,0.033"/>
		<path fill="#5EC5ED" d="M43.884,9.595c0.484,0.427,0.948,0.903,1.387,1.417c0.424-0.28,0.845-0.549,1.267-0.8
			c-0.553-0.524-1.136-0.995-1.744-1.4C44.478,9.043,44.175,9.305,43.884,9.595"/>
		
			<linearGradient id="SVGID_16_" gradientUnits="userSpaceOnUse" x1="-166.0206" y1="612.6328" x2="-165.7096" y2="613.6181" gradientTransform="matrix(32.4594 0 0 4.2491 5428.6499 -2598.1672)">
			<stop  offset="0" style="stop-color:#97D6EE"/>
			<stop  offset="0.7033" style="stop-color:#55C1EA"/>
			<stop  offset="1" style="stop-color:#55C1EA"/>
		</linearGradient>
		<path fill="url(#SVGID_16_)" d="M38.06,7.019c0.265-0.021,0.527-0.03,0.788-0.03c2.26,0,4.218,0.662,5.947,1.821
			c1.824-1.363,4.029-1.839,7.092-1.839H37.055C37.396,6.972,37.731,6.991,38.06,7.019"/>
		
			<linearGradient id="SVGID_17_" gradientUnits="userSpaceOnUse" x1="-165.4576" y1="582.5605" x2="-165.1537" y2="582.0733" gradientTransform="matrix(26.4722 0 0 7.484 4425.9082 -4349.8647)">
			<stop  offset="0" style="stop-color:#7ACCEC"/>
			<stop  offset="1" style="stop-color:#3FB7ED"/>
		</linearGradient>
		<path fill="url(#SVGID_17_)" d="M51.887,6.972c-3.063,0-5.268,0.476-7.092,1.839c0.606,0.405,1.189,0.876,1.742,1.4
			c2.54-1.529,5.055-2.542,7.535-2.984c0.945-0.168,1.889-0.254,2.82-0.254H51.887L51.887,6.972z"/>
		
			<linearGradient id="SVGID_18_" gradientUnits="userSpaceOnUse" x1="-168.4337" y1="538.6855" x2="-168.4337" y2="538.1595" gradientTransform="matrix(52.0449 0 0 -80.6355 8857.9277 43445.543)">
			<stop  offset="0" style="stop-color:#1DA7E7"/>
			<stop  offset="1" style="stop-color:#37ABE7;stop-opacity:0"/>
		</linearGradient>
		<path fill="url(#SVGID_18_)" d="M88.246,31.739c1.317-3.848,2.826-8.519,4.696-14.185c1.686-5.104,4.67-8.921,10.275-10.586
			c0.148-0.285,0.288-0.579,0.433-0.867c-9.138,0.519-13.408,4.92-15.557,11.439C84.333,28.921,82.058,36.299,79.866,41
			C82.664,38.465,85.464,35.354,88.246,31.739"/>
		<path d="M101.649,45.734h-1.035v3.048h-0.422v-3.048h-1.039v-0.363h2.496V45.734L101.649,45.734z"/>
		<path d="M105.889,48.781h-0.421v-2.29c0-0.181,0.015-0.402,0.034-0.662l0,0c-0.043,0.156-0.078,0.263-0.111,0.333l-1.227,2.62
			h-0.205l-1.23-2.6c-0.035-0.072-0.071-0.189-0.109-0.352h-0.016c0.016,0.137,0.02,0.359,0.02,0.667v2.285h-0.402V45.37h0.556
			l1.104,2.381c0.084,0.179,0.137,0.317,0.162,0.409h0.018c0.072-0.188,0.133-0.328,0.173-0.419l1.128-2.371h0.53v3.411H105.889z"/>
	</g>
</g>
</svg>
